<mxfile host="65bd71144e">
    <diagram id="LgIXHGWLZbaSbkNVQn-k" name="Page-1">
        <mxGraphModel dx="3465" dy="1948" grid="1" gridSize="10" guides="1" tooltips="1" connect="1" arrows="1" fold="1" page="1" pageScale="1" pageWidth="1169" pageHeight="827" background="#ffffff" math="0" shadow="0">
            <root>
                <mxCell id="0"/>
                <mxCell id="1" parent="0"/>
                <mxCell id="6" value="&lt;table data-sheets-baot=&quot;1&quot; data-sheets-root=&quot;1&quot; style=&quot;table-layout:fixed;font-size:10pt;font-family:Arial;width:0px;border-collapse:collapse;border:none&quot; border=&quot;1&quot; dir=&quot;ltr&quot; cellpadding=&quot;0&quot; cellspacing=&quot;0&quot; xmlns=&quot;http://www.w3.org/1999/xhtml&quot;&gt;&lt;colgroup&gt;&lt;col width=&quot;143&quot;&gt;&lt;col width=&quot;148&quot;&gt;&lt;col width=&quot;124&quot;&gt;&lt;col width=&quot;109&quot;&gt;&lt;col width=&quot;84&quot;&gt;&lt;col width=&quot;117&quot;&gt;&lt;col width=&quot;113&quot;&gt;&lt;col width=&quot;86&quot;&gt;&lt;col width=&quot;114&quot;&gt;&lt;col width=&quot;96&quot;&gt;&lt;/colgroup&gt;&lt;tbody&gt;&lt;tr style=&quot;height:21px;&quot;&gt;&lt;td style=&quot;border-top:1px solid #000000;border-right:1px solid #000000;border-bottom:1px solid #000000;border-left:1px solid #000000;overflow:hidden;padding:0px 3px 0px 3px;vertical-align:middle;background-color:#c9daf8;font-weight:bold;text-align:center;&quot;&gt;Name&lt;/td&gt;&lt;td style=&quot;border-top:1px solid #000000;border-right:1px solid #000000;border-bottom:1px solid #000000;overflow:hidden;padding:0px 3px 0px 3px;vertical-align:middle;background-color:#c9daf8;font-weight:bold;text-align:center;&quot;&gt;Primary Function&lt;/td&gt;&lt;td style=&quot;border-top:1px solid #000000;border-right:1px solid #000000;border-bottom:1px solid #000000;overflow:hidden;padding:0px 3px 0px 3px;vertical-align:middle;background-color:#c9daf8;font-weight:bold;text-align:center;&quot;&gt;Task Manage&lt;/td&gt;&lt;td style=&quot;border-top:1px solid #000000;border-right:1px solid #000000;border-bottom:1px solid #000000;overflow:hidden;padding:0px 3px 0px 3px;vertical-align:middle;background-color:#c9daf8;font-weight:bold;text-align:center;&quot;&gt;Repeat Date&lt;/td&gt;&lt;td style=&quot;border-top:1px solid #000000;border-right:1px solid #000000;border-bottom:1px solid #000000;overflow:hidden;padding:0px 3px 0px 3px;vertical-align:middle;background-color:#c9daf8;font-weight:bold;text-align:center;&quot;&gt;Outliner&lt;/td&gt;&lt;td style=&quot;border-top: 1px solid rgb(0, 0, 0); border-right: 1px solid rgb(0, 0, 0); border-bottom: 1px solid rgb(0, 0, 0); overflow: hidden; padding: 0px 3px; vertical-align: middle; background-color: rgb(201, 218, 248); font-weight: bold; overflow-wrap: break-word; text-align: center;&quot;&gt;Mintaining the collapse&lt;br&gt;of outline&lt;/td&gt;&lt;td style=&quot;border-top: 1px solid rgb(0, 0, 0); border-right: 1px solid rgb(0, 0, 0); border-bottom: 1px solid rgb(0, 0, 0); overflow: hidden; padding: 0px 3px; vertical-align: middle; background-color: rgb(201, 218, 248); font-weight: bold; overflow-wrap: break-word; text-align: center;&quot;&gt;Guide line for outline&lt;/td&gt;&lt;td style=&quot;border-top:1px solid #000000;border-right:1px solid #000000;border-bottom:1px solid #000000;overflow:hidden;padding:0px 3px 0px 3px;vertical-align:middle;background-color:#c9daf8;font-weight:bold;text-align:center;&quot;&gt;Database&lt;/td&gt;&lt;td style=&quot;border-top:1px solid #000000;border-right:1px solid #000000;border-bottom:1px solid #000000;overflow:hidden;padding:0px 3px 0px 3px;vertical-align:middle;background-color:#c9daf8;font-weight:bold;text-align:center;&quot;&gt;Smooth Apps&lt;/td&gt;&lt;td style=&quot;border-top:1px solid #000000;border-right:1px solid #000000;border-bottom:1px solid #000000;overflow:hidden;padding:0px 3px 0px 3px;vertical-align:middle;background-color:#c9daf8;font-weight:bold;text-align:center;&quot;&gt;Local Files&lt;/td&gt;&lt;/tr&gt;&lt;tr style=&quot;height:21px;&quot;&gt;&lt;td style=&quot;border-right:1px solid #000000;border-bottom:1px solid #000000;border-left:1px solid #000000;overflow:hidden;padding:0px 3px 0px 3px;vertical-align:middle;font-weight:bold;&quot;&gt;Anytype&lt;/td&gt;&lt;td style=&quot;border-right:1px solid #000000;border-bottom:1px solid #000000;overflow:hidden;padding:0px 3px 0px 3px;vertical-align:middle;font-weight:bold;text-align:center;&quot;&gt;1. Note&lt;/td&gt;&lt;td style=&quot;border-right:1px solid #000000;border-bottom:1px solid #000000;overflow:hidden;padding:0px 3px 0px 3px;vertical-align:middle;font-weight:bold;text-align:center;&quot;&gt;✔&lt;/td&gt;&lt;td style=&quot;border-right:1px solid #000000;border-bottom:1px solid #000000;overflow:hidden;padding:0px 3px 0px 3px;vertical-align:middle;&quot;&gt;&lt;/td&gt;&lt;td style=&quot;border-right:1px solid #000000;border-bottom:1px solid #000000;overflow:hidden;padding:0px 3px 0px 3px;vertical-align:middle;&quot;&gt;&lt;/td&gt;&lt;td style=&quot;border-right:1px solid #000000;border-bottom:1px solid #000000;overflow:hidden;padding:0px 3px 0px 3px;vertical-align:middle;&quot;&gt;&lt;/td&gt;&lt;td style=&quot;border-right:1px solid #000000;border-bottom:1px solid #000000;overflow:hidden;padding:0px 3px 0px 3px;vertical-align:middle;&quot;&gt;&lt;/td&gt;&lt;td style=&quot;border-right:1px solid #000000;border-bottom:1px solid #000000;overflow:hidden;padding:0px 3px 0px 3px;vertical-align:middle;font-weight:bold;text-align:center;&quot;&gt;✔&lt;/td&gt;&lt;td style=&quot;border-right:1px solid #000000;border-bottom:1px solid #000000;overflow:hidden;padding:0px 3px 0px 3px;vertical-align:middle;&quot;&gt;&lt;/td&gt;&lt;td style=&quot;border-right:1px solid #000000;border-bottom:1px solid #000000;overflow:hidden;padding:0px 3px 0px 3px;vertical-align:middle;font-weight:bold;text-align:center;&quot;&gt;✔&lt;/td&gt;&lt;/tr&gt;&lt;tr style=&quot;height:21px;&quot;&gt;&lt;td style=&quot;border-right:1px solid #000000;border-bottom:1px solid #000000;border-left:1px solid #000000;overflow:hidden;padding:0px 3px 0px 3px;vertical-align:middle;font-weight:bold;&quot;&gt;AppFlowy&lt;/td&gt;&lt;td style=&quot;border-right:1px solid #000000;border-bottom:1px solid #000000;overflow:hidden;padding:0px 3px 0px 3px;vertical-align:middle;font-weight:bold;text-align:center;&quot;&gt;1. Note&lt;/td&gt;&lt;td style=&quot;border-right:1px solid #000000;border-bottom:1px solid #000000;overflow:hidden;padding:0px 3px 0px 3px;vertical-align:middle;font-weight:bold;text-align:center;&quot;&gt;✔&lt;/td&gt;&lt;td style=&quot;border-right:1px solid #000000;border-bottom:1px solid #000000;overflow:hidden;padding:0px 3px 0px 3px;vertical-align:middle;&quot;&gt;&lt;/td&gt;&lt;td style=&quot;border-right:1px solid #000000;border-bottom:1px solid #000000;overflow:hidden;padding:0px 3px 0px 3px;vertical-align:middle;&quot;&gt;&lt;/td&gt;&lt;td style=&quot;border-right:1px solid #000000;border-bottom:1px solid #000000;overflow:hidden;padding:0px 3px 0px 3px;vertical-align:middle;&quot;&gt;&lt;/td&gt;&lt;td style=&quot;border-right:1px solid #000000;border-bottom:1px solid #000000;overflow:hidden;padding:0px 3px 0px 3px;vertical-align:middle;&quot;&gt;&lt;/td&gt;&lt;td style=&quot;border-right:1px solid #000000;border-bottom:1px solid #000000;overflow:hidden;padding:0px 3px 0px 3px;vertical-align:middle;&quot;&gt;&lt;/td&gt;&lt;td style=&quot;border-right:1px solid #000000;border-bottom:1px solid #000000;overflow:hidden;padding:0px 3px 0px 3px;vertical-align:middle;&quot;&gt;&lt;/td&gt;&lt;td style=&quot;border-right:1px solid #000000;border-bottom:1px solid #000000;overflow:hidden;padding:0px 3px 0px 3px;vertical-align:middle;&quot;&gt;&lt;/td&gt;&lt;/tr&gt;&lt;tr style=&quot;height:21px;&quot;&gt;&lt;td style=&quot;border-right:1px solid #000000;border-bottom:1px solid #000000;border-left:1px solid #000000;overflow:hidden;padding:0px 3px 0px 3px;vertical-align:middle;font-weight:bold;&quot;&gt;Coda&lt;/td&gt;&lt;td style=&quot;border-right:1px solid #000000;border-bottom:1px solid #000000;overflow:hidden;padding:0px 3px 0px 3px;vertical-align:middle;font-weight:bold;text-align:center;&quot;&gt;1. Note&lt;/td&gt;&lt;td style=&quot;border-right:1px solid #000000;border-bottom:1px solid #000000;overflow:hidden;padding:0px 3px 0px 3px;vertical-align:middle;font-weight:bold;text-align:center;&quot;&gt;✔&lt;/td&gt;&lt;td style=&quot;border-right:1px solid #000000;border-bottom:1px solid #000000;overflow:hidden;padding:0px 3px 0px 3px;vertical-align:middle;font-weight:bold;text-align:center;&quot;&gt;✔&lt;/td&gt;&lt;td style=&quot;border-right:1px solid #000000;border-bottom:1px solid #000000;overflow:hidden;padding:0px 3px 0px 3px;vertical-align:middle;font-weight:bold;text-align:center;&quot;&gt;△&lt;/td&gt;&lt;td style=&quot;border-right:1px solid #000000;border-bottom:1px solid #000000;overflow:hidden;padding:0px 3px 0px 3px;vertical-align:middle;&quot;&gt;&lt;/td&gt;&lt;td style=&quot;border-right:1px solid #000000;border-bottom:1px solid #000000;overflow:hidden;padding:0px 3px 0px 3px;vertical-align:middle;&quot;&gt;&lt;/td&gt;&lt;td style=&quot;border-right:1px solid #000000;border-bottom:1px solid #000000;overflow:hidden;padding:0px 3px 0px 3px;vertical-align:middle;font-weight:bold;text-align:center;&quot;&gt;✔&lt;/td&gt;&lt;td style=&quot;border-right:1px solid #000000;border-bottom:1px solid #000000;overflow:hidden;padding:0px 3px 0px 3px;vertical-align:middle;&quot;&gt;&lt;/td&gt;&lt;td style=&quot;border-right:1px solid #000000;border-bottom:1px solid #000000;overflow:hidden;padding:0px 3px 0px 3px;vertical-align:middle;&quot;&gt;&lt;/td&gt;&lt;/tr&gt;&lt;tr style=&quot;height:21px;&quot;&gt;&lt;td style=&quot;border-right:1px solid #000000;border-bottom:1px solid #000000;border-left:1px solid #000000;overflow:hidden;padding:0px 3px 0px 3px;vertical-align:middle;font-weight:bold;&quot;&gt;Dropbox Paper&lt;/td&gt;&lt;td style=&quot;border-right:1px solid #000000;border-bottom:1px solid #000000;overflow:hidden;padding:0px 3px 0px 3px;vertical-align:middle;font-weight:bold;text-align:center;&quot;&gt;1. Note&lt;/td&gt;&lt;td style=&quot;border-right:1px solid #000000;border-bottom:1px solid #000000;overflow:hidden;padding:0px 3px 0px 3px;vertical-align:middle;font-weight:bold;text-align:center;&quot;&gt;✔&lt;/td&gt;&lt;td style=&quot;border-right:1px solid #000000;border-bottom:1px solid #000000;overflow:hidden;padding:0px 3px 0px 3px;vertical-align:middle;&quot;&gt;&lt;/td&gt;&lt;td style=&quot;border-right:1px solid #000000;border-bottom:1px solid #000000;overflow:hidden;padding:0px 3px 0px 3px;vertical-align:middle;&quot;&gt;&lt;/td&gt;&lt;td style=&quot;border-right:1px solid #000000;border-bottom:1px solid #000000;overflow:hidden;padding:0px 3px 0px 3px;vertical-align:middle;&quot;&gt;&lt;/td&gt;&lt;td style=&quot;border-right:1px solid #000000;border-bottom:1px solid #000000;overflow:hidden;padding:0px 3px 0px 3px;vertical-align:middle;&quot;&gt;&lt;/td&gt;&lt;td style=&quot;border-right:1px solid #000000;border-bottom:1px solid #000000;overflow:hidden;padding:0px 3px 0px 3px;vertical-align:middle;&quot;&gt;&lt;/td&gt;&lt;td style=&quot;border-right:1px solid #000000;border-bottom:1px solid #000000;overflow:hidden;padding:0px 3px 0px 3px;vertical-align:middle;&quot;&gt;&lt;/td&gt;&lt;td style=&quot;border-right:1px solid #000000;border-bottom:1px solid #000000;overflow:hidden;padding:0px 3px 0px 3px;vertical-align:middle;&quot;&gt;&lt;/td&gt;&lt;/tr&gt;&lt;tr style=&quot;height:21px;&quot;&gt;&lt;td style=&quot;border-right:1px solid #000000;border-bottom:1px solid #000000;border-left:1px solid #000000;overflow:hidden;padding:0px 3px 0px 3px;vertical-align:middle;font-weight:bold;&quot;&gt;Dynalist&lt;/td&gt;&lt;td style=&quot;border-right:1px solid #000000;border-bottom:1px solid #000000;overflow:hidden;padding:0px 3px 0px 3px;vertical-align:middle;font-weight:bold;text-align:center;&quot;&gt;1. Note&lt;/td&gt;&lt;td style=&quot;border-right:1px solid #000000;border-bottom:1px solid #000000;overflow:hidden;padding:0px 3px 0px 3px;vertical-align:middle;font-weight:bold;text-align:center;&quot;&gt;✔&lt;/td&gt;&lt;td style=&quot;border-right:1px solid #000000;border-bottom:1px solid #000000;overflow:hidden;padding:0px 3px 0px 3px;vertical-align:middle;font-weight:bold;text-align:center;&quot;&gt;✔&lt;/td&gt;&lt;td style=&quot;border-right:1px solid #000000;border-bottom:1px solid #000000;overflow:hidden;padding:0px 3px 0px 3px;vertical-align:middle;font-weight:bold;text-align:center;&quot;&gt;◯&lt;/td&gt;&lt;td style=&quot;border-right:1px solid #000000;border-bottom:1px solid #000000;overflow:hidden;padding:0px 3px 0px 3px;vertical-align:middle;font-weight:bold;text-align:center;&quot;&gt;✔&lt;/td&gt;&lt;td style=&quot;border-right:1px solid #000000;border-bottom:1px solid #000000;overflow:hidden;padding:0px 3px 0px 3px;vertical-align:middle;font-weight:bold;text-align:center;&quot;&gt;✔&lt;/td&gt;&lt;td style=&quot;border-right:1px solid #000000;border-bottom:1px solid #000000;overflow:hidden;padding:0px 3px 0px 3px;vertical-align:middle;&quot;&gt;&lt;/td&gt;&lt;td style=&quot;border-right:1px solid #000000;border-bottom:1px solid #000000;overflow:hidden;padding:0px 3px 0px 3px;vertical-align:middle;&quot;&gt;&lt;/td&gt;&lt;td style=&quot;border-right:1px solid #000000;border-bottom:1px solid #000000;overflow:hidden;padding:0px 3px 0px 3px;vertical-align:middle;&quot;&gt;&lt;/td&gt;&lt;/tr&gt;&lt;tr style=&quot;height:21px;&quot;&gt;&lt;td style=&quot;border-right:1px solid #000000;border-bottom:1px solid #000000;border-left:1px solid #000000;overflow:hidden;padding:0px 3px 0px 3px;vertical-align:middle;font-weight:bold;&quot;&gt;Evernote&lt;/td&gt;&lt;td style=&quot;border-right:1px solid #000000;border-bottom:1px solid #000000;overflow:hidden;padding:0px 3px 0px 3px;vertical-align:middle;font-weight:bold;text-align:center;&quot;&gt;1. Note&lt;/td&gt;&lt;td style=&quot;border-right:1px solid #000000;border-bottom:1px solid #000000;overflow:hidden;padding:0px 3px 0px 3px;vertical-align:middle;font-weight:bold;text-align:center;&quot;&gt;✔&lt;/td&gt;&lt;td style=&quot;border-right:1px solid #000000;border-bottom:1px solid #000000;overflow:hidden;padding:0px 3px 0px 3px;vertical-align:middle;&quot;&gt;&lt;/td&gt;&lt;td style=&quot;border-right:1px solid #000000;border-bottom:1px solid #000000;overflow:hidden;padding:0px 3px 0px 3px;vertical-align:middle;&quot;&gt;&lt;/td&gt;&lt;td style=&quot;border-right:1px solid #000000;border-bottom:1px solid #000000;overflow:hidden;padding:0px 3px 0px 3px;vertical-align:middle;&quot;&gt;&lt;/td&gt;&lt;td style=&quot;border-right:1px solid #000000;border-bottom:1px solid #000000;overflow:hidden;padding:0px 3px 0px 3px;vertical-align:middle;&quot;&gt;&lt;/td&gt;&lt;td style=&quot;border-right:1px solid #000000;border-bottom:1px solid #000000;overflow:hidden;padding:0px 3px 0px 3px;vertical-align:middle;&quot;&gt;&lt;/td&gt;&lt;td style=&quot;border-right:1px solid #000000;border-bottom:1px solid #000000;overflow:hidden;padding:0px 3px 0px 3px;vertical-align:middle;&quot;&gt;&lt;/td&gt;&lt;td style=&quot;border-right:1px solid #000000;border-bottom:1px solid #000000;overflow:hidden;padding:0px 3px 0px 3px;vertical-align:middle;&quot;&gt;&lt;/td&gt;&lt;/tr&gt;&lt;tr style=&quot;height:21px;&quot;&gt;&lt;td style=&quot;border-right:1px solid #000000;border-bottom:1px solid #000000;border-left:1px solid #000000;overflow:hidden;padding:0px 3px 0px 3px;vertical-align:middle;font-weight:bold;&quot;&gt;Google Docs&lt;/td&gt;&lt;td style=&quot;border-right:1px solid #000000;border-bottom:1px solid #000000;overflow:hidden;padding:0px 3px 0px 3px;vertical-align:middle;font-weight:bold;text-align:center;&quot;&gt;1. Note&lt;/td&gt;&lt;td style=&quot;border-right:1px solid #000000;border-bottom:1px solid #000000;overflow:hidden;padding:0px 3px 0px 3px;vertical-align:middle;font-weight:bold;text-align:center;&quot;&gt;✔&lt;/td&gt;&lt;td style=&quot;border-right:1px solid #000000;border-bottom:1px solid #000000;overflow:hidden;padding:0px 3px 0px 3px;vertical-align:middle;&quot;&gt;&lt;/td&gt;&lt;td style=&quot;border-right:1px solid #000000;border-bottom:1px solid #000000;overflow:hidden;padding:0px 3px 0px 3px;vertical-align:middle;&quot;&gt;&lt;/td&gt;&lt;td style=&quot;border-right:1px solid #000000;border-bottom:1px solid #000000;overflow:hidden;padding:0px 3px 0px 3px;vertical-align:middle;&quot;&gt;&lt;/td&gt;&lt;td style=&quot;border-right:1px solid #000000;border-bottom:1px solid #000000;overflow:hidden;padding:0px 3px 0px 3px;vertical-align:middle;&quot;&gt;&lt;/td&gt;&lt;td style=&quot;border-right:1px solid #000000;border-bottom:1px solid #000000;overflow:hidden;padding:0px 3px 0px 3px;vertical-align:middle;&quot;&gt;&lt;/td&gt;&lt;td style=&quot;border-right:1px solid #000000;border-bottom:1px solid #000000;overflow:hidden;padding:0px 3px 0px 3px;vertical-align:middle;&quot;&gt;&lt;/td&gt;&lt;td style=&quot;border-right:1px solid #000000;border-bottom:1px solid #000000;overflow:hidden;padding:0px 3px 0px 3px;vertical-align:middle;&quot;&gt;&lt;/td&gt;&lt;/tr&gt;&lt;tr style=&quot;height:21px;&quot;&gt;&lt;td style=&quot;border-right:1px solid #000000;border-bottom:1px solid #000000;border-left:1px solid #000000;overflow:hidden;padding:0px 3px 0px 3px;vertical-align:middle;font-weight:bold;&quot;&gt;Google Keep&lt;/td&gt;&lt;td style=&quot;border-right:1px solid #000000;border-bottom:1px solid #000000;overflow:hidden;padding:0px 3px 0px 3px;vertical-align:middle;font-weight:bold;text-align:center;&quot;&gt;1. Note&lt;/td&gt;&lt;td style=&quot;border-right:1px solid #000000;border-bottom:1px solid #000000;overflow:hidden;padding:0px 3px 0px 3px;vertical-align:middle;font-weight:bold;text-align:center;&quot;&gt;✔&lt;/td&gt;&lt;td style=&quot;border-right:1px solid #000000;border-bottom:1px solid #000000;overflow:hidden;padding:0px 3px 0px 3px;vertical-align:middle;&quot;&gt;&lt;/td&gt;&lt;td style=&quot;border-right:1px solid #000000;border-bottom:1px solid #000000;overflow:hidden;padding:0px 3px 0px 3px;vertical-align:middle;&quot;&gt;&lt;/td&gt;&lt;td style=&quot;border-right:1px solid #000000;border-bottom:1px solid #000000;overflow:hidden;padding:0px 3px 0px 3px;vertical-align:middle;&quot;&gt;&lt;/td&gt;&lt;td style=&quot;border-right:1px solid #000000;border-bottom:1px solid #000000;overflow:hidden;padding:0px 3px 0px 3px;vertical-align:middle;&quot;&gt;&lt;/td&gt;&lt;td style=&quot;border-right:1px solid #000000;border-bottom:1px solid #000000;overflow:hidden;padding:0px 3px 0px 3px;vertical-align:middle;&quot;&gt;&lt;/td&gt;&lt;td style=&quot;border-right:1px solid #000000;border-bottom:1px solid #000000;overflow:hidden;padding:0px 3px 0px 3px;vertical-align:middle;font-weight:bold;text-align:center;&quot;&gt;✔&lt;/td&gt;&lt;td style=&quot;border-right:1px solid #000000;border-bottom:1px solid #000000;overflow:hidden;padding:0px 3px 0px 3px;vertical-align:middle;&quot;&gt;&lt;/td&gt;&lt;/tr&gt;&lt;tr style=&quot;height:21px;&quot;&gt;&lt;td style=&quot;border-right:1px solid #000000;border-bottom:1px solid #000000;border-left:1px solid #000000;overflow:hidden;padding:0px 3px 0px 3px;vertical-align:middle;font-weight:bold;&quot;&gt;Logseq&lt;/td&gt;&lt;td style=&quot;border-right:1px solid #000000;border-bottom:1px solid #000000;overflow:hidden;padding:0px 3px 0px 3px;vertical-align:middle;font-weight:bold;text-align:center;&quot;&gt;1. Note&lt;/td&gt;&lt;td style=&quot;border-right:1px solid #000000;border-bottom:1px solid #000000;overflow:hidden;padding:0px 3px 0px 3px;vertical-align:middle;font-weight:bold;text-align:center;&quot;&gt;✔&lt;/td&gt;&lt;td style=&quot;border-right:1px solid #000000;border-bottom:1px solid #000000;overflow:hidden;padding:0px 3px 0px 3px;vertical-align:middle;font-weight:bold;text-align:center;&quot;&gt;✔&lt;/td&gt;&lt;td style=&quot;border-right:1px solid #000000;border-bottom:1px solid #000000;overflow:hidden;padding:0px 3px 0px 3px;vertical-align:middle;font-weight:bold;text-align:center;&quot;&gt;◯&lt;/td&gt;&lt;td style=&quot;border-right:1px solid #000000;border-bottom:1px solid #000000;overflow:hidden;padding:0px 3px 0px 3px;vertical-align:middle;font-weight:bold;text-align:center;&quot;&gt;✔&lt;/td&gt;&lt;td style=&quot;border-right:1px solid #000000;border-bottom:1px solid #000000;overflow:hidden;padding:0px 3px 0px 3px;vertical-align:middle;font-weight:bold;text-align:center;&quot;&gt;✔&lt;/td&gt;&lt;td style=&quot;border-right:1px solid #000000;border-bottom:1px solid #000000;overflow:hidden;padding:0px 3px 0px 3px;vertical-align:middle;&quot;&gt;&lt;/td&gt;&lt;td style=&quot;border-right:1px solid #000000;border-bottom:1px solid #000000;overflow:hidden;padding:0px 3px 0px 3px;vertical-align:middle;&quot;&gt;&lt;/td&gt;&lt;td style=&quot;border-right:1px solid #000000;border-bottom:1px solid #000000;overflow:hidden;padding:0px 3px 0px 3px;vertical-align:middle;font-weight:bold;text-align:center;&quot;&gt;✔&lt;/td&gt;&lt;/tr&gt;&lt;tr style=&quot;height:21px;&quot;&gt;&lt;td style=&quot;border-right:1px solid #000000;border-bottom:1px solid #000000;border-left:1px solid #000000;overflow:hidden;padding:0px 3px 0px 3px;vertical-align:middle;font-weight:bold;&quot;&gt;Microsoft Whiteboard&lt;/td&gt;&lt;td style=&quot;border-right:1px solid #000000;border-bottom:1px solid #000000;overflow:hidden;padding:0px 3px 0px 3px;vertical-align:middle;font-weight:bold;text-align:center;&quot;&gt;1. Note&lt;/td&gt;&lt;td style=&quot;border-right:1px solid #000000;border-bottom:1px solid #000000;overflow:hidden;padding:0px 3px 0px 3px;vertical-align:middle;font-weight:bold;text-align:center;&quot;&gt;✔&lt;/td&gt;&lt;td style=&quot;border-right:1px solid #000000;border-bottom:1px solid #000000;overflow:hidden;padding:0px 3px 0px 3px;vertical-align:middle;font-weight:bold;text-align:center;&quot;&gt;△&lt;/td&gt;&lt;td style=&quot;border-right:1px solid #000000;border-bottom:1px solid #000000;overflow:hidden;padding:0px 3px 0px 3px;vertical-align:middle;&quot;&gt;&lt;/td&gt;&lt;td style=&quot;border-right:1px solid #000000;border-bottom:1px solid #000000;overflow:hidden;padding:0px 3px 0px 3px;vertical-align:middle;&quot;&gt;&lt;/td&gt;&lt;td style=&quot;border-right:1px solid #000000;border-bottom:1px solid #000000;overflow:hidden;padding:0px 3px 0px 3px;vertical-align:middle;&quot;&gt;&lt;/td&gt;&lt;td style=&quot;border-right:1px solid #000000;border-bottom:1px solid #000000;overflow:hidden;padding:0px 3px 0px 3px;vertical-align:middle;font-weight:bold;text-align:center;&quot;&gt;✔&lt;/td&gt;&lt;td style=&quot;border-right:1px solid #000000;border-bottom:1px solid #000000;overflow:hidden;padding:0px 3px 0px 3px;vertical-align:middle;&quot;&gt;&lt;/td&gt;&lt;td style=&quot;border-right:1px solid #000000;border-bottom:1px solid #000000;overflow:hidden;padding:0px 3px 0px 3px;vertical-align:middle;&quot;&gt;&lt;/td&gt;&lt;/tr&gt;&lt;tr style=&quot;height:21px;&quot;&gt;&lt;td style=&quot;border-right:1px solid #000000;border-bottom:1px solid #000000;border-left:1px solid #000000;overflow:hidden;padding:0px 3px 0px 3px;vertical-align:middle;font-weight:bold;&quot;&gt;Notion&lt;/td&gt;&lt;td style=&quot;border-right:1px solid #000000;border-bottom:1px solid #000000;overflow:hidden;padding:0px 3px 0px 3px;vertical-align:middle;font-weight:bold;text-align:center;&quot;&gt;1. Note&lt;/td&gt;&lt;td style=&quot;border-right:1px solid #000000;border-bottom:1px solid #000000;overflow:hidden;padding:0px 3px 0px 3px;vertical-align:middle;font-weight:bold;text-align:center;&quot;&gt;✔&lt;/td&gt;&lt;td style=&quot;border-right:1px solid #000000;border-bottom:1px solid #000000;overflow:hidden;padding:0px 3px 0px 3px;vertical-align:middle;font-weight:bold;text-align:center;&quot;&gt;△&lt;/td&gt;&lt;td style=&quot;border-right:1px solid #000000;border-bottom:1px solid #000000;overflow:hidden;padding:0px 3px 0px 3px;vertical-align:middle;font-weight:bold;text-align:center;&quot;&gt;△&lt;/td&gt;&lt;td style=&quot;border-right:1px solid #000000;border-bottom:1px solid #000000;overflow:hidden;padding:0px 3px 0px 3px;vertical-align:middle;font-weight:bold;text-align:center;&quot;&gt;△&lt;/td&gt;&lt;td style=&quot;border-right:1px solid #000000;border-bottom:1px solid #000000;overflow:hidden;padding:0px 3px 0px 3px;vertical-align:middle;font-weight:bold;text-align:center;&quot;&gt;X&lt;/td&gt;&lt;td style=&quot;border-right:1px solid #000000;border-bottom:1px solid #000000;overflow:hidden;padding:0px 3px 0px 3px;vertical-align:middle;font-weight:bold;text-align:center;&quot;&gt;✔&lt;/td&gt;&lt;td style=&quot;border-right:1px solid #000000;border-bottom:1px solid #000000;overflow:hidden;padding:0px 3px 0px 3px;vertical-align:middle;&quot;&gt;&lt;/td&gt;&lt;td style=&quot;border-right:1px solid #000000;border-bottom:1px solid #000000;overflow:hidden;padding:0px 3px 0px 3px;vertical-align:middle;&quot;&gt;&lt;/td&gt;&lt;/tr&gt;&lt;tr style=&quot;height:21px;&quot;&gt;&lt;td style=&quot;border-right:1px solid #000000;border-bottom:1px solid #000000;border-left:1px solid #000000;overflow:hidden;padding:0px 3px 0px 3px;vertical-align:middle;font-weight:bold;&quot;&gt;Obsidian&lt;/td&gt;&lt;td style=&quot;border-right:1px solid #000000;border-bottom:1px solid #000000;overflow:hidden;padding:0px 3px 0px 3px;vertical-align:middle;font-weight:bold;text-align:center;&quot;&gt;1. Note&lt;/td&gt;&lt;td style=&quot;border-right:1px solid #000000;border-bottom:1px solid #000000;overflow:hidden;padding:0px 3px 0px 3px;vertical-align:middle;font-weight:bold;text-align:center;&quot;&gt;✔&lt;/td&gt;&lt;td style=&quot;border-right:1px solid #000000;border-bottom:1px solid #000000;overflow:hidden;padding:0px 3px 0px 3px;vertical-align:middle;&quot;&gt;&lt;/td&gt;&lt;td style=&quot;border-right:1px solid #000000;border-bottom:1px solid #000000;overflow:hidden;padding:0px 3px 0px 3px;vertical-align:middle;font-weight:bold;text-align:center;&quot;&gt;△&lt;/td&gt;&lt;td style=&quot;border-right:1px solid #000000;border-bottom:1px solid #000000;overflow:hidden;padding:0px 3px 0px 3px;vertical-align:middle;font-weight:bold;text-align:center;&quot;&gt;X&lt;/td&gt;&lt;td style=&quot;border-right:1px solid #000000;border-bottom:1px solid #000000;overflow:hidden;padding:0px 3px 0px 3px;vertical-align:middle;font-weight:bold;text-align:center;&quot;&gt;✔&lt;/td&gt;&lt;td style=&quot;border-right:1px solid #000000;border-bottom:1px solid #000000;overflow:hidden;padding:0px 3px 0px 3px;vertical-align:middle;font-weight:bold;text-align:center;&quot;&gt;✔&lt;/td&gt;&lt;td style=&quot;border-right:1px solid #000000;border-bottom:1px solid #000000;overflow:hidden;padding:0px 3px 0px 3px;vertical-align:middle;&quot;&gt;&lt;/td&gt;&lt;td style=&quot;border-right:1px solid #000000;border-bottom:1px solid #000000;overflow:hidden;padding:0px 3px 0px 3px;vertical-align:middle;font-weight:bold;text-align:center;&quot;&gt;✔&lt;/td&gt;&lt;/tr&gt;&lt;tr style=&quot;height:21px;&quot;&gt;&lt;td style=&quot;border-right:1px solid #000000;border-bottom:1px solid #000000;border-left:1px solid #000000;overflow:hidden;padding:0px 3px 0px 3px;vertical-align:middle;font-weight:bold;&quot;&gt;OneNote&lt;/td&gt;&lt;td style=&quot;border-right:1px solid #000000;border-bottom:1px solid #000000;overflow:hidden;padding:0px 3px 0px 3px;vertical-align:middle;font-weight:bold;text-align:center;&quot;&gt;1. Note&lt;/td&gt;&lt;td style=&quot;border-right:1px solid #000000;border-bottom:1px solid #000000;overflow:hidden;padding:0px 3px 0px 3px;vertical-align:middle;font-weight:bold;text-align:center;&quot;&gt;✔&lt;/td&gt;&lt;td style=&quot;border-right:1px solid #000000;border-bottom:1px solid #000000;overflow:hidden;padding:0px 3px 0px 3px;vertical-align:middle;&quot;&gt;&lt;/td&gt;&lt;td style=&quot;border-right:1px solid #000000;border-bottom:1px solid #000000;overflow:hidden;padding:0px 3px 0px 3px;vertical-align:middle;&quot;&gt;&lt;/td&gt;&lt;td style=&quot;border-right:1px solid #000000;border-bottom:1px solid #000000;overflow:hidden;padding:0px 3px 0px 3px;vertical-align:middle;&quot;&gt;&lt;/td&gt;&lt;td style=&quot;border-right:1px solid #000000;border-bottom:1px solid #000000;overflow:hidden;padding:0px 3px 0px 3px;vertical-align:middle;&quot;&gt;&lt;/td&gt;&lt;td style=&quot;border-right:1px solid #000000;border-bottom:1px solid #000000;overflow:hidden;padding:0px 3px 0px 3px;vertical-align:middle;&quot;&gt;&lt;/td&gt;&lt;td style=&quot;border-right:1px solid #000000;border-bottom:1px solid #000000;overflow:hidden;padding:0px 3px 0px 3px;vertical-align:middle;&quot;&gt;&lt;/td&gt;&lt;td style=&quot;border-right:1px solid #000000;border-bottom:1px solid #000000;overflow:hidden;padding:0px 3px 0px 3px;vertical-align:middle;&quot;&gt;&lt;/td&gt;&lt;/tr&gt;&lt;tr style=&quot;height:21px;&quot;&gt;&lt;td style=&quot;border-right:1px solid #000000;border-bottom:1px solid #000000;border-left:1px solid #000000;overflow:hidden;padding:0px 3px 0px 3px;vertical-align:middle;font-weight:bold;&quot;&gt;RemNote&lt;/td&gt;&lt;td style=&quot;border-right:1px solid #000000;border-bottom:1px solid #000000;overflow:hidden;padding:0px 3px 0px 3px;vertical-align:middle;font-weight:bold;text-align:center;&quot;&gt;1. Note&lt;/td&gt;&lt;td style=&quot;border-right:1px solid #000000;border-bottom:1px solid #000000;overflow:hidden;padding:0px 3px 0px 3px;vertical-align:middle;font-weight:bold;text-align:center;&quot;&gt;✔&lt;/td&gt;&lt;td style=&quot;border-right:1px solid #000000;border-bottom:1px solid #000000;overflow:hidden;padding:0px 3px 0px 3px;vertical-align:middle;&quot;&gt;&lt;/td&gt;&lt;td style=&quot;border-right:1px solid #000000;border-bottom:1px solid #000000;overflow:hidden;padding:0px 3px 0px 3px;vertical-align:middle;font-weight:bold;text-align:center;&quot;&gt;◯&lt;/td&gt;&lt;td style=&quot;border-right:1px solid #000000;border-bottom:1px solid #000000;overflow:hidden;padding:0px 3px 0px 3px;vertical-align:middle;font-weight:bold;text-align:center;&quot;&gt;✔&lt;/td&gt;&lt;td style=&quot;border-right:1px solid #000000;border-bottom:1px solid #000000;overflow:hidden;padding:0px 3px 0px 3px;vertical-align:middle;font-weight:bold;text-align:center;&quot;&gt;✔&lt;/td&gt;&lt;td style=&quot;border-right:1px solid #000000;border-bottom:1px solid #000000;overflow:hidden;padding:0px 3px 0px 3px;vertical-align:middle;&quot;&gt;&lt;/td&gt;&lt;td style=&quot;border-right:1px solid #000000;border-bottom:1px solid #000000;overflow:hidden;padding:0px 3px 0px 3px;vertical-align:middle;&quot;&gt;&lt;/td&gt;&lt;td style=&quot;border-right:1px solid #000000;border-bottom:1px solid #000000;overflow:hidden;padding:0px 3px 0px 3px;vertical-align:middle;&quot;&gt;&lt;/td&gt;&lt;/tr&gt;&lt;tr style=&quot;height:21px;&quot;&gt;&lt;td style=&quot;border-right:1px solid #000000;border-bottom:1px solid #000000;border-left:1px solid #000000;overflow:hidden;padding:0px 3px 0px 3px;vertical-align:middle;font-weight:bold;&quot;&gt;Roam Research&lt;/td&gt;&lt;td style=&quot;border-right:1px solid #000000;border-bottom:1px solid #000000;overflow:hidden;padding:0px 3px 0px 3px;vertical-align:middle;font-weight:bold;text-align:center;&quot;&gt;1. Note&lt;/td&gt;&lt;td style=&quot;border-right:1px solid #000000;border-bottom:1px solid #000000;overflow:hidden;padding:0px 3px 0px 3px;vertical-align:middle;font-weight:bold;text-align:center;&quot;&gt;✔&lt;/td&gt;&lt;td style=&quot;border-right:1px solid #000000;border-bottom:1px solid #000000;overflow:hidden;padding:0px 3px 0px 3px;vertical-align:middle;&quot;&gt;&lt;/td&gt;&lt;td style=&quot;border-right:1px solid #000000;border-bottom:1px solid #000000;overflow:hidden;padding:0px 3px 0px 3px;vertical-align:middle;font-weight:bold;text-align:center;&quot;&gt;◯&lt;/td&gt;&lt;td style=&quot;border-right:1px solid #000000;border-bottom:1px solid #000000;overflow:hidden;padding:0px 3px 0px 3px;vertical-align:middle;&quot;&gt;&lt;/td&gt;&lt;td style=&quot;border-right:1px solid #000000;border-bottom:1px solid #000000;overflow:hidden;padding:0px 3px 0px 3px;vertical-align:middle;&quot;&gt;&lt;/td&gt;&lt;td style=&quot;border-right:1px solid #000000;border-bottom:1px solid #000000;overflow:hidden;padding:0px 3px 0px 3px;vertical-align:middle;&quot;&gt;&lt;/td&gt;&lt;td style=&quot;border-right:1px solid #000000;border-bottom:1px solid #000000;overflow:hidden;padding:0px 3px 0px 3px;vertical-align:middle;&quot;&gt;&lt;/td&gt;&lt;td style=&quot;border-right:1px solid #000000;border-bottom:1px solid #000000;overflow:hidden;padding:0px 3px 0px 3px;vertical-align:middle;&quot;&gt;&lt;/td&gt;&lt;/tr&gt;&lt;tr style=&quot;height:21px;&quot;&gt;&lt;td style=&quot;border-right:1px solid #000000;border-bottom:1px solid #000000;border-left:1px solid #000000;overflow:hidden;padding:0px 3px 0px 3px;vertical-align:middle;font-weight:bold;&quot;&gt;Simplenote&lt;/td&gt;&lt;td style=&quot;border-right:1px solid #000000;border-bottom:1px solid #000000;overflow:hidden;padding:0px 3px 0px 3px;vertical-align:middle;font-weight:bold;text-align:center;&quot;&gt;1. Note&lt;/td&gt;&lt;td style=&quot;border-right:1px solid #000000;border-bottom:1px solid #000000;overflow:hidden;padding:0px 3px 0px 3px;vertical-align:middle;font-weight:bold;text-align:center;&quot;&gt;✔&lt;/td&gt;&lt;td style=&quot;border-right:1px solid #000000;border-bottom:1px solid #000000;overflow:hidden;padding:0px 3px 0px 3px;vertical-align:middle;&quot;&gt;&lt;/td&gt;&lt;td style=&quot;border-right:1px solid #000000;border-bottom:1px solid #000000;overflow:hidden;padding:0px 3px 0px 3px;vertical-align:middle;&quot;&gt;&lt;/td&gt;&lt;td style=&quot;border-right:1px solid #000000;border-bottom:1px solid #000000;overflow:hidden;padding:0px 3px 0px 3px;vertical-align:middle;&quot;&gt;&lt;/td&gt;&lt;td style=&quot;border-right:1px solid #000000;border-bottom:1px solid #000000;overflow:hidden;padding:0px 3px 0px 3px;vertical-align:middle;&quot;&gt;&lt;/td&gt;&lt;td style=&quot;border-right:1px solid #000000;border-bottom:1px solid #000000;overflow:hidden;padding:0px 3px 0px 3px;vertical-align:middle;&quot;&gt;&lt;/td&gt;&lt;td style=&quot;border-right:1px solid #000000;border-bottom:1px solid #000000;overflow:hidden;padding:0px 3px 0px 3px;vertical-align:middle;font-weight:bold;text-align:center;&quot;&gt;✔&lt;/td&gt;&lt;td style=&quot;border-right:1px solid #000000;border-bottom:1px solid #000000;overflow:hidden;padding:0px 3px 0px 3px;vertical-align:middle;&quot;&gt;&lt;/td&gt;&lt;/tr&gt;&lt;tr style=&quot;height:21px;&quot;&gt;&lt;td style=&quot;border-right:1px solid #000000;border-bottom:1px solid #000000;border-left:1px solid #000000;overflow:hidden;padding:0px 3px 0px 3px;vertical-align:middle;font-weight:bold;&quot;&gt;Workflowy&lt;/td&gt;&lt;td style=&quot;border-right:1px solid #000000;border-bottom:1px solid #000000;overflow:hidden;padding:0px 3px 0px 3px;vertical-align:middle;font-weight:bold;text-align:center;&quot;&gt;1. Note&lt;/td&gt;&lt;td style=&quot;border-right:1px solid #000000;border-bottom:1px solid #000000;overflow:hidden;padding:0px 3px 0px 3px;vertical-align:middle;font-weight:bold;text-align:center;&quot;&gt;✔&lt;/td&gt;&lt;td style=&quot;border-right:1px solid #000000;border-bottom:1px solid #000000;overflow:hidden;padding:0px 3px 0px 3px;vertical-align:middle;&quot;&gt;&lt;/td&gt;&lt;td style=&quot;border-right:1px solid #000000;border-bottom:1px solid #000000;overflow:hidden;padding:0px 3px 0px 3px;vertical-align:middle;font-weight:bold;text-align:center;&quot;&gt;◯&lt;/td&gt;&lt;td style=&quot;border-right:1px solid #000000;border-bottom:1px solid #000000;overflow:hidden;padding:0px 3px 0px 3px;vertical-align:middle;&quot;&gt;&lt;/td&gt;&lt;td style=&quot;border-right:1px solid #000000;border-bottom:1px solid #000000;overflow:hidden;padding:0px 3px 0px 3px;vertical-align:middle;&quot;&gt;&lt;/td&gt;&lt;td style=&quot;border-right:1px solid #000000;border-bottom:1px solid #000000;overflow:hidden;padding:0px 3px 0px 3px;vertical-align:middle;&quot;&gt;&lt;/td&gt;&lt;td style=&quot;border-right:1px solid #000000;border-bottom:1px solid #000000;overflow:hidden;padding:0px 3px 0px 3px;vertical-align:middle;&quot;&gt;&lt;/td&gt;&lt;td style=&quot;border-right:1px solid #000000;border-bottom:1px solid #000000;overflow:hidden;padding:0px 3px 0px 3px;vertical-align:middle;&quot;&gt;&lt;/td&gt;&lt;/tr&gt;&lt;tr style=&quot;height:21px;&quot;&gt;&lt;td style=&quot;border-right:1px solid #000000;border-bottom:1px solid #000000;border-left:1px solid #000000;overflow:hidden;padding:0px 3px 0px 3px;vertical-align:middle;font-weight:bold;&quot;&gt;Airtable&lt;/td&gt;&lt;td style=&quot;border-right:1px solid #000000;border-bottom:1px solid #000000;overflow:hidden;padding:0px 3px 0px 3px;vertical-align:middle;font-weight:bold;text-align:center;&quot;&gt;2. Database&lt;/td&gt;&lt;td style=&quot;border-right:1px solid #000000;border-bottom:1px solid #000000;overflow:hidden;padding:0px 3px 0px 3px;vertical-align:middle;font-weight:bold;text-align:center;&quot;&gt;✔&lt;/td&gt;&lt;td style=&quot;border-right:1px solid #000000;border-bottom:1px solid #000000;overflow:hidden;padding:0px 3px 0px 3px;vertical-align:middle;&quot;&gt;&lt;/td&gt;&lt;td style=&quot;border-right:1px solid #000000;border-bottom:1px solid #000000;overflow:hidden;padding:0px 3px 0px 3px;vertical-align:middle;&quot;&gt;&lt;/td&gt;&lt;td style=&quot;border-right:1px solid #000000;border-bottom:1px solid #000000;overflow:hidden;padding:0px 3px 0px 3px;vertical-align:middle;&quot;&gt;&lt;/td&gt;&lt;td style=&quot;border-right:1px solid #000000;border-bottom:1px solid #000000;overflow:hidden;padding:0px 3px 0px 3px;vertical-align:middle;&quot;&gt;&lt;/td&gt;&lt;td style=&quot;border-right:1px solid #000000;border-bottom:1px solid #000000;overflow:hidden;padding:0px 3px 0px 3px;vertical-align:middle;font-weight:bold;text-align:center;&quot;&gt;✔&lt;/td&gt;&lt;td style=&quot;border-right:1px solid #000000;border-bottom:1px solid #000000;overflow:hidden;padding:0px 3px 0px 3px;vertical-align:middle;&quot;&gt;&lt;/td&gt;&lt;td style=&quot;border-right:1px solid #000000;border-bottom:1px solid #000000;overflow:hidden;padding:0px 3px 0px 3px;vertical-align:middle;&quot;&gt;&lt;/td&gt;&lt;/tr&gt;&lt;tr style=&quot;height:21px;&quot;&gt;&lt;td style=&quot;border-right:1px solid #000000;border-bottom:1px solid #000000;border-left:1px solid #000000;overflow:hidden;padding:0px 3px 0px 3px;vertical-align:middle;font-weight:bold;&quot;&gt;Baserow&lt;/td&gt;&lt;td style=&quot;border-right:1px solid #000000;border-bottom:1px solid #000000;overflow:hidden;padding:0px 3px 0px 3px;vertical-align:middle;font-weight:bold;text-align:center;&quot;&gt;2. Database&lt;/td&gt;&lt;td style=&quot;border-right:1px solid #000000;border-bottom:1px solid #000000;overflow:hidden;padding:0px 3px 0px 3px;vertical-align:middle;font-weight:bold;text-align:center;&quot;&gt;✔&lt;/td&gt;&lt;td style=&quot;border-right:1px solid #000000;border-bottom:1px solid #000000;overflow:hidden;padding:0px 3px 0px 3px;vertical-align:middle;&quot;&gt;&lt;/td&gt;&lt;td style=&quot;border-right:1px solid #000000;border-bottom:1px solid #000000;overflow:hidden;padding:0px 3px 0px 3px;vertical-align:middle;&quot;&gt;&lt;/td&gt;&lt;td style=&quot;border-right:1px solid #000000;border-bottom:1px solid #000000;overflow:hidden;padding:0px 3px 0px 3px;vertical-align:middle;&quot;&gt;&lt;/td&gt;&lt;td style=&quot;border-right:1px solid #000000;border-bottom:1px solid #000000;overflow:hidden;padding:0px 3px 0px 3px;vertical-align:middle;&quot;&gt;&lt;/td&gt;&lt;td style=&quot;border-right:1px solid #000000;border-bottom:1px solid #000000;overflow:hidden;padding:0px 3px 0px 3px;vertical-align:middle;font-weight:bold;text-align:center;&quot;&gt;✔&lt;/td&gt;&lt;td style=&quot;border-right:1px solid #000000;border-bottom:1px solid #000000;overflow:hidden;padding:0px 3px 0px 3px;vertical-align:middle;&quot;&gt;&lt;/td&gt;&lt;td style=&quot;border-right:1px solid #000000;border-bottom:1px solid #000000;overflow:hidden;padding:0px 3px 0px 3px;vertical-align:middle;&quot;&gt;&lt;/td&gt;&lt;/tr&gt;&lt;tr style=&quot;height:21px;&quot;&gt;&lt;td style=&quot;border-right:1px solid #000000;border-bottom:1px solid #000000;border-left:1px solid #000000;overflow:hidden;padding:0px 3px 0px 3px;vertical-align:middle;font-weight:bold;&quot;&gt;Google Sheets&lt;/td&gt;&lt;td style=&quot;border-right:1px solid #000000;border-bottom:1px solid #000000;overflow:hidden;padding:0px 3px 0px 3px;vertical-align:middle;font-weight:bold;text-align:center;&quot;&gt;2. Database&lt;/td&gt;&lt;td style=&quot;border-right:1px solid #000000;border-bottom:1px solid #000000;overflow:hidden;padding:0px 3px 0px 3px;vertical-align:middle;font-weight:bold;text-align:center;&quot;&gt;✔&lt;/td&gt;&lt;td style=&quot;border-right:1px solid #000000;border-bottom:1px solid #000000;overflow:hidden;padding:0px 3px 0px 3px;vertical-align:middle;&quot;&gt;&lt;/td&gt;&lt;td style=&quot;border-right:1px solid #000000;border-bottom:1px solid #000000;overflow:hidden;padding:0px 3px 0px 3px;vertical-align:middle;&quot;&gt;&lt;/td&gt;&lt;td style=&quot;border-right:1px solid #000000;border-bottom:1px solid #000000;overflow:hidden;padding:0px 3px 0px 3px;vertical-align:middle;&quot;&gt;&lt;/td&gt;&lt;td style=&quot;border-right:1px solid #000000;border-bottom:1px solid #000000;overflow:hidden;padding:0px 3px 0px 3px;vertical-align:middle;&quot;&gt;&lt;/td&gt;&lt;td style=&quot;border-right:1px solid #000000;border-bottom:1px solid #000000;overflow:hidden;padding:0px 3px 0px 3px;vertical-align:middle;font-weight:bold;text-align:center;&quot;&gt;✔&lt;/td&gt;&lt;td style=&quot;border-right:1px solid #000000;border-bottom:1px solid #000000;overflow:hidden;padding:0px 3px 0px 3px;vertical-align:middle;&quot;&gt;&lt;/td&gt;&lt;td style=&quot;border-right:1px solid #000000;border-bottom:1px solid #000000;overflow:hidden;padding:0px 3px 0px 3px;vertical-align:middle;&quot;&gt;&lt;/td&gt;&lt;/tr&gt;&lt;tr style=&quot;height:21px;&quot;&gt;&lt;td style=&quot;border-right:1px solid #000000;border-bottom:1px solid #000000;border-left:1px solid #000000;overflow:hidden;padding:0px 3px 0px 3px;vertical-align:middle;font-weight:bold;&quot;&gt;nocoDB&lt;/td&gt;&lt;td style=&quot;border-right:1px solid #000000;border-bottom:1px solid #000000;overflow:hidden;padding:0px 3px 0px 3px;vertical-align:middle;font-weight:bold;text-align:center;&quot;&gt;2. Database&lt;/td&gt;&lt;td style=&quot;border-right:1px solid #000000;border-bottom:1px solid #000000;overflow:hidden;padding:0px 3px 0px 3px;vertical-align:middle;font-weight:bold;text-align:center;&quot;&gt;✔&lt;/td&gt;&lt;td style=&quot;border-right:1px solid #000000;border-bottom:1px solid #000000;overflow:hidden;padding:0px 3px 0px 3px;vertical-align:middle;&quot;&gt;&lt;/td&gt;&lt;td style=&quot;border-right:1px solid #000000;border-bottom:1px solid #000000;overflow:hidden;padding:0px 3px 0px 3px;vertical-align:middle;&quot;&gt;&lt;/td&gt;&lt;td style=&quot;border-right:1px solid #000000;border-bottom:1px solid #000000;overflow:hidden;padding:0px 3px 0px 3px;vertical-align:middle;&quot;&gt;&lt;/td&gt;&lt;td style=&quot;border-right:1px solid #000000;border-bottom:1px solid #000000;overflow:hidden;padding:0px 3px 0px 3px;vertical-align:middle;&quot;&gt;&lt;/td&gt;&lt;td style=&quot;border-right:1px solid #000000;border-bottom:1px solid #000000;overflow:hidden;padding:0px 3px 0px 3px;vertical-align:middle;font-weight:bold;text-align:center;&quot;&gt;✔&lt;/td&gt;&lt;td style=&quot;border-right:1px solid #000000;border-bottom:1px solid #000000;overflow:hidden;padding:0px 3px 0px 3px;vertical-align:middle;&quot;&gt;&lt;/td&gt;&lt;td style=&quot;border-right:1px solid #000000;border-bottom:1px solid #000000;overflow:hidden;padding:0px 3px 0px 3px;vertical-align:middle;&quot;&gt;&lt;/td&gt;&lt;/tr&gt;&lt;tr style=&quot;height:21px;&quot;&gt;&lt;td style=&quot;border-right:1px solid #000000;border-bottom:1px solid #000000;border-left:1px solid #000000;overflow:hidden;padding:0px 3px 0px 3px;vertical-align:middle;font-weight:bold;&quot;&gt;ClickUp&lt;/td&gt;&lt;td style=&quot;border-right:1px solid #000000;border-bottom:1px solid #000000;overflow:hidden;padding:0px 3px 0px 3px;vertical-align:middle;font-weight:bold;text-align:center;&quot;&gt;3. Task Manager&lt;/td&gt;&lt;td style=&quot;border-right:1px solid #000000;border-bottom:1px solid #000000;overflow:hidden;padding:0px 3px 0px 3px;vertical-align:middle;font-weight:bold;text-align:center;&quot;&gt;✔&lt;/td&gt;&lt;td style=&quot;border-right:1px solid #000000;border-bottom:1px solid #000000;overflow:hidden;padding:0px 3px 0px 3px;vertical-align:middle;&quot;&gt;&lt;/td&gt;&lt;td style=&quot;border-right:1px solid #000000;border-bottom:1px solid #000000;overflow:hidden;padding:0px 3px 0px 3px;vertical-align:middle;&quot;&gt;&lt;/td&gt;&lt;td style=&quot;border-right:1px solid #000000;border-bottom:1px solid #000000;overflow:hidden;padding:0px 3px 0px 3px;vertical-align:middle;&quot;&gt;&lt;/td&gt;&lt;td style=&quot;border-right:1px solid #000000;border-bottom:1px solid #000000;overflow:hidden;padding:0px 3px 0px 3px;vertical-align:middle;&quot;&gt;&lt;/td&gt;&lt;td style=&quot;border-right:1px solid #000000;border-bottom:1px solid #000000;overflow:hidden;padding:0px 3px 0px 3px;vertical-align:middle;&quot;&gt;&lt;/td&gt;&lt;td style=&quot;border-right:1px solid #000000;border-bottom:1px solid #000000;overflow:hidden;padding:0px 3px 0px 3px;vertical-align:middle;&quot;&gt;&lt;/td&gt;&lt;td style=&quot;border-right:1px solid #000000;border-bottom:1px solid #000000;overflow:hidden;padding:0px 3px 0px 3px;vertical-align:middle;&quot;&gt;&lt;/td&gt;&lt;/tr&gt;&lt;tr style=&quot;height:21px;&quot;&gt;&lt;td style=&quot;border-right:1px solid #000000;border-bottom:1px solid #000000;border-left:1px solid #000000;overflow:hidden;padding:0px 3px 0px 3px;vertical-align:middle;font-weight:bold;&quot;&gt;Google Tasks&lt;/td&gt;&lt;td style=&quot;border-right:1px solid #000000;border-bottom:1px solid #000000;overflow:hidden;padding:0px 3px 0px 3px;vertical-align:middle;font-weight:bold;text-align:center;&quot;&gt;3. Task Manager&lt;/td&gt;&lt;td style=&quot;border-right:1px solid #000000;border-bottom:1px solid #000000;overflow:hidden;padding:0px 3px 0px 3px;vertical-align:middle;font-weight:bold;text-align:center;&quot;&gt;✔&lt;/td&gt;&lt;td style=&quot;border-right:1px solid #000000;border-bottom:1px solid #000000;overflow:hidden;padding:0px 3px 0px 3px;vertical-align:middle;font-weight:bold;text-align:center;&quot;&gt;✔&lt;/td&gt;&lt;td style=&quot;border-right:1px solid #000000;border-bottom:1px solid #000000;overflow:hidden;padding:0px 3px 0px 3px;vertical-align:middle;&quot;&gt;&lt;/td&gt;&lt;td style=&quot;border-right:1px solid #000000;border-bottom:1px solid #000000;overflow:hidden;padding:0px 3px 0px 3px;vertical-align:middle;&quot;&gt;&lt;/td&gt;&lt;td style=&quot;border-right:1px solid #000000;border-bottom:1px solid #000000;overflow:hidden;padding:0px 3px 0px 3px;vertical-align:middle;&quot;&gt;&lt;/td&gt;&lt;td style=&quot;border-right:1px solid #000000;border-bottom:1px solid #000000;overflow:hidden;padding:0px 3px 0px 3px;vertical-align:middle;&quot;&gt;&lt;/td&gt;&lt;td style=&quot;border-right:1px solid #000000;border-bottom:1px solid #000000;overflow:hidden;padding:0px 3px 0px 3px;vertical-align:middle;&quot;&gt;&lt;/td&gt;&lt;td style=&quot;border-right:1px solid #000000;border-bottom:1px solid #000000;overflow:hidden;padding:0px 3px 0px 3px;vertical-align:middle;&quot;&gt;&lt;/td&gt;&lt;/tr&gt;&lt;tr style=&quot;height:21px;&quot;&gt;&lt;td style=&quot;border-right:1px solid #000000;border-bottom:1px solid #000000;border-left:1px solid #000000;overflow:hidden;padding:0px 3px 0px 3px;vertical-align:middle;font-weight:bold;&quot;&gt;Microsoft ToDo&lt;/td&gt;&lt;td style=&quot;border-right:1px solid #000000;border-bottom:1px solid #000000;overflow:hidden;padding:0px 3px 0px 3px;vertical-align:middle;font-weight:bold;text-align:center;&quot;&gt;3. Task Manager&lt;/td&gt;&lt;td style=&quot;border-right:1px solid #000000;border-bottom:1px solid #000000;overflow:hidden;padding:0px 3px 0px 3px;vertical-align:middle;font-weight:bold;text-align:center;&quot;&gt;✔&lt;/td&gt;&lt;td style=&quot;border-right:1px solid #000000;border-bottom:1px solid #000000;overflow:hidden;padding:0px 3px 0px 3px;vertical-align:middle;&quot;&gt;&lt;/td&gt;&lt;td style=&quot;border-right:1px solid #000000;border-bottom:1px solid #000000;overflow:hidden;padding:0px 3px 0px 3px;vertical-align:middle;&quot;&gt;&lt;/td&gt;&lt;td style=&quot;border-right:1px solid #000000;border-bottom:1px solid #000000;overflow:hidden;padding:0px 3px 0px 3px;vertical-align:middle;&quot;&gt;&lt;/td&gt;&lt;td style=&quot;border-right:1px solid #000000;border-bottom:1px solid #000000;overflow:hidden;padding:0px 3px 0px 3px;vertical-align:middle;&quot;&gt;&lt;/td&gt;&lt;td style=&quot;border-right:1px solid #000000;border-bottom:1px solid #000000;overflow:hidden;padding:0px 3px 0px 3px;vertical-align:middle;&quot;&gt;&lt;/td&gt;&lt;td style=&quot;border-right:1px solid #000000;border-bottom:1px solid #000000;overflow:hidden;padding:0px 3px 0px 3px;vertical-align:middle;&quot;&gt;&lt;/td&gt;&lt;td style=&quot;border-right:1px solid #000000;border-bottom:1px solid #000000;overflow:hidden;padding:0px 3px 0px 3px;vertical-align:middle;&quot;&gt;&lt;/td&gt;&lt;/tr&gt;&lt;tr style=&quot;height:21px;&quot;&gt;&lt;td style=&quot;border-right:1px solid #000000;border-bottom:1px solid #000000;border-left:1px solid #000000;overflow:hidden;padding:0px 3px 0px 3px;vertical-align:middle;font-weight:bold;&quot;&gt;Taskade&lt;/td&gt;&lt;td style=&quot;border-right:1px solid #000000;border-bottom:1px solid #000000;overflow:hidden;padding:0px 3px 0px 3px;vertical-align:middle;font-weight:bold;text-align:center;&quot;&gt;3. Task Manager&lt;/td&gt;&lt;td style=&quot;border-right:1px solid #000000;border-bottom:1px solid #000000;overflow:hidden;padding:0px 3px 0px 3px;vertical-align:middle;font-weight:bold;text-align:center;&quot;&gt;✔&lt;/td&gt;&lt;td style=&quot;border-right:1px solid #000000;border-bottom:1px solid #000000;overflow:hidden;padding:0px 3px 0px 3px;vertical-align:middle;font-weight:bold;text-align:center;&quot;&gt;✔&lt;/td&gt;&lt;td style=&quot;border-right:1px solid #000000;border-bottom:1px solid #000000;overflow:hidden;padding:0px 3px 0px 3px;vertical-align:middle;font-weight:bold;text-align:center;&quot;&gt;◯&lt;/td&gt;&lt;td style=&quot;border-right:1px solid #000000;border-bottom:1px solid #000000;overflow:hidden;padding:0px 3px 0px 3px;vertical-align:middle;font-weight:bold;text-align:center;&quot;&gt;✔&lt;/td&gt;&lt;td style=&quot;border-right:1px solid #000000;border-bottom:1px solid #000000;overflow:hidden;padding:0px 3px 0px 3px;vertical-align:middle;font-weight:bold;text-align:center;&quot;&gt;✔&lt;/td&gt;&lt;td style=&quot;border-right:1px solid #000000;border-bottom:1px solid #000000;overflow:hidden;padding:0px 3px 0px 3px;vertical-align:middle;&quot;&gt;&lt;/td&gt;&lt;td style=&quot;border-right:1px solid #000000;border-bottom:1px solid #000000;overflow:hidden;padding:0px 3px 0px 3px;vertical-align:middle;&quot;&gt;&lt;/td&gt;&lt;td style=&quot;border-right:1px solid #000000;border-bottom:1px solid #000000;overflow:hidden;padding:0px 3px 0px 3px;vertical-align:middle;&quot;&gt;&lt;/td&gt;&lt;/tr&gt;&lt;tr style=&quot;height:21px;&quot;&gt;&lt;td style=&quot;border-right:1px solid #000000;border-bottom:1px solid #000000;border-left:1px solid #000000;overflow:hidden;padding:0px 3px 0px 3px;vertical-align:middle;font-weight:bold;&quot;&gt;Tick Tick&lt;/td&gt;&lt;td style=&quot;border-right:1px solid #000000;border-bottom:1px solid #000000;overflow:hidden;padding:0px 3px 0px 3px;vertical-align:middle;font-weight:bold;text-align:center;&quot;&gt;3. Task Manager&lt;/td&gt;&lt;td style=&quot;border-right:1px solid #000000;border-bottom:1px solid #000000;overflow:hidden;padding:0px 3px 0px 3px;vertical-align:middle;font-weight:bold;text-align:center;&quot;&gt;✔&lt;/td&gt;&lt;td style=&quot;border-right:1px solid #000000;border-bottom:1px solid #000000;overflow:hidden;padding:0px 3px 0px 3px;vertical-align:middle;font-weight:bold;text-align:center;&quot;&gt;✔&lt;/td&gt;&lt;td style=&quot;border-right:1px solid #000000;border-bottom:1px solid #000000;overflow:hidden;padding:0px 3px 0px 3px;vertical-align:middle;&quot;&gt;&lt;/td&gt;&lt;td style=&quot;border-right:1px solid #000000;border-bottom:1px solid #000000;overflow:hidden;padding:0px 3px 0px 3px;vertical-align:middle;&quot;&gt;&lt;/td&gt;&lt;td style=&quot;border-right:1px solid #000000;border-bottom:1px solid #000000;overflow:hidden;padding:0px 3px 0px 3px;vertical-align:middle;&quot;&gt;&lt;/td&gt;&lt;td style=&quot;border-right:1px solid #000000;border-bottom:1px solid #000000;overflow:hidden;padding:0px 3px 0px 3px;vertical-align:middle;&quot;&gt;&lt;/td&gt;&lt;td style=&quot;border-right:1px solid #000000;border-bottom:1px solid #000000;overflow:hidden;padding:0px 3px 0px 3px;vertical-align:middle;&quot;&gt;&lt;/td&gt;&lt;td style=&quot;border-right:1px solid #000000;border-bottom:1px solid #000000;overflow:hidden;padding:0px 3px 0px 3px;vertical-align:middle;&quot;&gt;&lt;/td&gt;&lt;/tr&gt;&lt;tr style=&quot;height:21px;&quot;&gt;&lt;td style=&quot;border-right:1px solid #000000;border-bottom:1px solid #000000;border-left:1px solid #000000;overflow:hidden;padding:0px 3px 0px 3px;vertical-align:middle;font-weight:bold;&quot;&gt;Todoist&lt;/td&gt;&lt;td style=&quot;border-right:1px solid #000000;border-bottom:1px solid #000000;overflow:hidden;padding:0px 3px 0px 3px;vertical-align:middle;font-weight:bold;text-align:center;&quot;&gt;3. Task Manager&lt;/td&gt;&lt;td style=&quot;border-right:1px solid #000000;border-bottom:1px solid #000000;overflow:hidden;padding:0px 3px 0px 3px;vertical-align:middle;font-weight:bold;text-align:center;&quot;&gt;✔&lt;/td&gt;&lt;td style=&quot;border-right:1px solid #000000;border-bottom:1px solid #000000;overflow:hidden;padding:0px 3px 0px 3px;vertical-align:middle;font-weight:bold;text-align:center;&quot;&gt;✔&lt;/td&gt;&lt;td style=&quot;border-right:1px solid #000000;border-bottom:1px solid #000000;overflow:hidden;padding:0px 3px 0px 3px;vertical-align:middle;font-weight:bold;text-align:center;&quot;&gt;◯&lt;/td&gt;&lt;td style=&quot;border-right:1px solid #000000;border-bottom:1px solid #000000;overflow:hidden;padding:0px 3px 0px 3px;vertical-align:middle;font-weight:bold;text-align:center;&quot;&gt;✔&lt;/td&gt;&lt;td style=&quot;border-right:1px solid #000000;border-bottom:1px solid #000000;overflow:hidden;padding:0px 3px 0px 3px;vertical-align:middle;&quot;&gt;&lt;/td&gt;&lt;td style=&quot;border-right:1px solid #000000;border-bottom:1px solid #000000;overflow:hidden;padding:0px 3px 0px 3px;vertical-align:middle;&quot;&gt;&lt;/td&gt;&lt;td style=&quot;border-right:1px solid #000000;border-bottom:1px solid #000000;overflow:hidden;padding:0px 3px 0px 3px;vertical-align:middle;font-weight:bold;text-align:center;&quot;&gt;✔&lt;/td&gt;&lt;td style=&quot;border-right:1px solid #000000;border-bottom:1px solid #000000;overflow:hidden;padding:0px 3px 0px 3px;vertical-align:middle;&quot;&gt;&lt;/td&gt;&lt;/tr&gt;&lt;/tbody&gt;&lt;/table&gt;" style="text;whiteSpace=wrap;html=1;" vertex="1" parent="1">
                    <mxGeometry x="700" y="270" width="560" height="650" as="geometry"/>
                </mxCell>
            </root>
        </mxGraphModel>
    </diagram>
</mxfile>